<?xml version="1.0" encoding="utf-8"?>
<!-- Generator: Adobe Illustrator 22.1.0, SVG Export Plug-In . SVG Version: 6.00 Build 0)  -->
<svg version="1.1" id="Layer_1" xmlns="http://www.w3.org/2000/svg" xmlns:xlink="http://www.w3.org/1999/xlink" x="0px" y="0px"
	 viewBox="0 0 40 40" style="enable-background:new 0 0 40 40;" xml:space="preserve">
<style type="text/css">
	.st0{fill:#FFFFFF;}
	.st1{fill:#003E7E;}
</style>
<g>
	<g>
		<path class="st0" d="M29.7,21.2c-0.3,0.5-0.7,0.9-1,1.4c-2.4,2.9-4.8,4.2-7.2,5.6c-0.4,0.2-0.9,0.5-1.3,0.7l-0.1,0l-0.1,0l0,0
			c-0.2-0.1-0.5-0.2-0.8-0.4c-1.9-0.9-5.7-2.7-7.9-6.2c-0.3-0.4-0.6-0.9-0.8-1.4l-0.1,1.3c0,0.5,0.3,1.3,0.8,2.2
			c1.6,2.4,5.1,5.7,8.7,6.9c0.1,0,0.1,0.1,0.2,0.1c3.6-1.7,6.8-4.6,8.5-6.5c0.6-0.7,1-1.3,1.2-1.6C29.8,22.6,29.8,21.9,29.7,21.2z"
			/>
		<path class="st0" d="M10.7,18.1L10.7,18.1l0.3,0.1L10.7,18.1z M20.2,23.6L20.2,23.6h-0.1l-0.1,0l-9.3-5.2l-0.1,1.8
			c0.2,0.5,0.5,1.1,0.8,1.5c2.1,3.6,6,5.5,8,6.4c0.3,0.1,0.5,0.2,0.7,0.3c0,0,0,0,0,0c0.4-0.2,0.8-0.5,1.2-0.7
			c2.5-1.4,4.9-2.7,7.4-5.8c0.3-0.4,0.7-0.9,1-1.4l0,0c0-0.8,0-1.7,0.1-2.6L20.2,23.6z"/>
		<path class="st0" d="M7.3,15.4l-6-3.4h0l0.2,0.8l0,0l5.8,3.3l1.7,1c0-0.2,0.1-0.5,0.1-0.7L7.3,15.4z"/>
		<path class="st0" d="M20.4,4.4L1.6,11.9l7.6,4.3c0,0,0,0,0,0l9.4-4c0-0.2,0-0.5,0.1-0.7c0.1-0.2,0.3-0.3,0.4-0.5
			c0.2-0.2,0.5-0.3,0.8-0.4c0,0,0,0,0,0c0.2,0,0.4-0.1,0.5-0.1c0.5,0,0.9,0.2,1.1,0.4c0.1,0.1,0.2,0.3,0.2,0.4
			c0.1,0.2,0,0.5-0.1,0.7c-0.2,0.4-0.7,0.8-1.2,0.9c-0.2,0.1-0.4,0.1-0.6,0.1c0,0-0.1,0-0.1,0c-0.3,0-0.5-0.1-0.7-0.2l-8.6,4
			l9.6,5.5l18.2-10.6L20.4,4.4z"/>
		<polygon class="st0" points="38.7,11.9 20.2,22.7 10.2,17.1 10,17.1 10,17.7 20.2,23.4 38.5,12.8 38.5,12.8 38.7,11.9 		"/>
		<path class="st0" d="M21.7,11.5c-0.1-0.2-0.2-0.4-0.5-0.5c-0.2-0.1-0.4-0.1-0.6-0.1c-0.2,0-0.3,0-0.5,0.1c0,0,0,0-0.1,0
			c0,0-0.1,0-0.1,0c-0.4,0.1-0.7,0.4-0.8,0.6c-0.1,0.2-0.1,0.4-0.1,0.5c0,0,0,0,0,0.1l0.1,0.1l-7.7,3.2l-1.3,0.5l-0.5,0.2l-0.1,0
			c0,0.1-0.1,0.2-0.1,0.2c0,0.2-0.1,0.4-0.1,0.7c0,0.1,0,0.2,0,0.3c0,0,0,0,0,0c0,0.2,0,0.5,0,0.6c0,0,0.1,0,0.1,0
			c0.1,0,0.1,0,0.2,0l0.1-0.5l0-0.3l0,0l0.1-0.6l0.1,0l0,0l0.2-0.1l0.1-0.1l1.1-0.5l7.9-3.6l0.1,0c0.2,0.1,0.4,0.2,0.7,0.2
			c0,0,0.1,0,0.1,0c0.1,0,0.3,0,0.5-0.1c0.4-0.1,0.8-0.4,1-0.8C21.6,11.9,21.7,11.7,21.7,11.5z"/>
		<path class="st0" d="M9,22.6c0.1,0,0.3,0,0.4,0c0.1,0,0.3,0,0.4,0c0.1,0,0.2,0,0.2,0l-0.2-2.4c-0.1,0.1-0.3,0.1-0.5,0.1
			c-0.2,0-0.4-0.1-0.5-0.2l-0.1,2.4C8.8,22.6,8.9,22.6,9,22.6L9,22.6z"/>
		<path class="st0" d="M11,34.7l-0.9-11.6l0-0.2c-0.1,0-0.2,0-0.2,0c-0.2,0-0.3,0-0.5,0c-0.1,0-0.3,0-0.4,0h0c-0.1,0-0.1,0-0.2,0
			L8.1,34.7l-0.3,4.9l3.6-0.4l0,0L11,34.7z"/>
		<path class="st0" d="M9.6,18.7c-0.1,0-0.2-0.1-0.3-0.1c-0.1,0-0.2,0-0.3,0.1c-0.2,0.1-0.4,0.4-0.4,0.6c0,0.1,0,0.1,0,0.2
			c0,0.1,0,0.1,0.1,0.1c0,0.1,0.1,0.1,0.1,0.2C9,19.9,9.2,20,9.4,20c0.2,0,0.3-0.1,0.5-0.2c0.1,0,0.1-0.1,0.1-0.2
			c0-0.1,0.1-0.2,0.1-0.2c0,0,0-0.1,0-0.1C10.1,19,9.9,18.8,9.6,18.7z"/>
	</g>
	<path class="st1" d="M28.7,5.7L29.9,0l0,0L10.1,0l1.3,5.7H0L1.3,12l5.9,3.4l1.9,1.1c-0.1,0.2-0.1,0.4-0.1,0.7l-1.7-1l-5.8-3.3
		l4.6,21.8L7.3,40h25.4l0,0l5.8-27.2v0L20.1,23.3L9.9,17.7l0.1-0.5l0.2-0.1l10,5.7L38.7,12L40,5.7H28.7z M10.7,18.4l9.5,5.3l9.6-5.5
		c0,0.9-0.1,1.8-0.1,2.6l0,0c-0.3,0.5-0.7,0.9-1,1.4c-2.5,3-4.9,4.4-7.4,5.8c-0.4,0.2-0.8,0.5-1.2,0.7c0,0-0.5-0.2-0.7-0.4
		c-2-0.9-5.9-2.8-8-6.4c-0.3-0.5-0.5-1-0.8-1.5L10.7,18.4z M10.6,20.9c0.2,0.5,0.5,1,0.8,1.4c2.2,3.5,6,5.3,7.9,6.2
		c0.3,0.1,0.6,0.3,0.8,0.4l0,0l0.1,0l0.1,0c0.4-0.2,0.9-0.5,1.3-0.7c2.4-1.3,4.8-2.7,7.2-5.6c0.3-0.4,0.7-0.9,1-1.4
		c0,0.7,0.1,1.4,0.1,1.9c-0.2,0.3-0.6,0.9-1.2,1.6c-1.7,1.9-4.9,4.8-8.5,6.5c-0.1,0-0.1-0.1-0.2-0.1c-3.6-1.2-7.1-4.4-8.7-6.9
		c-0.6-0.9-0.9-1.6-0.8-2.2L10.6,20.9z M11,34.7l0.3,4.1l0,0.4l0,0l-1.3,0.1l-2.3,0.3L8,34.7l0.6-11.8c0.1,0,0.1,0,0.2,0h0
		c0.1,0,0.3,0,0.4,0c0.2,0,0.3,0,0.5,0c0.1,0,0.2,0,0.2,0l0,0.2L11,34.7z M10,22.6c-0.1,0-0.2,0-0.2,0c-0.1,0-0.3,0-0.4,0
		c-0.1,0-0.3,0-0.4,0h0c-0.1,0-0.2,0-0.2,0l0.1-2.4c0.2,0.1,0.3,0.2,0.5,0.2c0.2,0,0.3-0.1,0.5-0.1L10,22.6
		C10,22.5,10.1,22.5,10,22.6C10.1,22.5,10,22.5,10,22.6z M10,19.3c0,0,0,0.1,0,0.1c0,0.1,0,0.2-0.1,0.2c0,0.1-0.1,0.1-0.1,0.2
		C9.7,19.9,9.5,20,9.4,20c-0.2,0-0.4-0.1-0.5-0.2c0,0-0.1-0.1-0.1-0.2c0,0,0-0.1-0.1-0.1c0-0.1,0-0.1,0-0.2c0-0.3,0.2-0.5,0.4-0.6
		c0.1,0,0.2-0.1,0.3-0.1c0.1,0,0.2,0,0.3,0.1C9.9,18.7,10,19,10,19.3z M10.1,16.8l-0.2,0.1l0,0l-0.1,0l-0.1,0.6l0,0l0,0.3l-0.1,0.5
		c-0.1,0-0.1,0-0.2,0c0,0-0.1,0-0.1,0c0-0.2,0-0.4,0-0.6c0,0,0,0,0,0c0-0.1,0-0.2,0-0.3c0-0.3,0.1-0.5,0.1-0.7c0-0.1,0-0.2,0.1-0.2
		l0.1,0l0.5-0.2l1.3-0.5l7.7-3.2L19,12.2c0,0,0,0,0-0.1c0-0.2,0-0.4,0.1-0.5c0.2-0.3,0.5-0.5,0.8-0.6c0,0,0.1,0,0.1,0c0,0,0,0,0.1,0
		c0.2,0,0.3-0.1,0.5-0.1c0.2,0,0.4,0.1,0.6,0.1c0.2,0.1,0.4,0.3,0.5,0.5c0,0.2,0,0.4-0.1,0.5c-0.2,0.3-0.6,0.6-1,0.8
		c-0.2,0-0.3,0.1-0.5,0.1c0,0-0.1,0-0.1,0c-0.2,0-0.4-0.1-0.7-0.2l-0.1,0l-7.9,3.6l-1.1,0.5L10.1,16.8z M20.2,22.4l-9.6-5.5l8.6-4
		c0.2,0.1,0.5,0.2,0.7,0.2c0,0,0.1,0,0.1,0c0.2,0,0.3,0,0.6-0.1c0.5-0.1,1-0.5,1.2-0.9c0.1-0.2,0.2-0.5,0.1-0.7
		c0-0.2-0.1-0.3-0.2-0.4c-0.2-0.3-0.7-0.4-1.1-0.4c-0.2,0-0.4,0-0.5,0.1c0,0,0,0,0,0c-0.3,0.1-0.6,0.2-0.8,0.4
		c-0.2,0.1-0.3,0.3-0.4,0.5c-0.1,0.2-0.2,0.5-0.1,0.7l-9.4,4c0,0,0,0,0,0l-7.6-4.3l18.8-7.4l18,7.4L20.2,22.4z"/>
</g>
</svg>
